# xmcd
# 
# Track frame offsets:
#     150
#     18545
#     40956
#     64669
#     83273
#     99731
#     148263
#     171778
#     184282
# 
# Disc length: 2747
# 
# Revision: 3
# Processed by: cddbd v1.5.2PL0 Copyright (c) Steve Scherf et al.
# Submitted via: fre:ac v1.0.17
# 
DISCID=760ab909
DTITLE=The Michael Schenker Group - Reactivate Live - Sidcup Rehearsals 1980
DYEAR=1980
DGENRE=Hard Rock
TTITLE0=Armed and Ready
TTITLE1=Cry For The Nations
TTITLE2=Victim Of Illusion
TTITLE3=Feels Like A Good Thing
TTITLE4=Into The Arena
TTITLE5=Rock Bottom
TTITLE6=Lost Horizons
TTITLE7=Doctor Doctor
TTITLE8=Lights Out
EXTD=YEAR: 1980
EXTT0=
EXTT1=
EXTT2=
EXTT3=
EXTT4=
EXTT5=
EXTT6=
EXTT7=
EXTT8=
PLAYORDER=
